<?xml version="1.0" standalone="no"?>
<!DOCTYPE svg PUBLIC "-//W3C//DTD SVG 20010904//EN"
 "http://www.w3.org/TR/2001/REC-SVG-20010904/DTD/svg10.dtd">
<svg version="1.0" xmlns="http://www.w3.org/2000/svg"
 width="405.000000pt" height="405.000000pt" viewBox="0 0 405.000000 405.000000"
 preserveAspectRatio="xMidYMid meet">

<g transform="translate(0.000000,405.000000) scale(0.100000,-0.100000)"
fill="#000000" stroke="none">
<path d="M137 3913 c-4 -3 -7 -856 -7 -1895 l0 -1888 1895 0 1895 0 0 1895 0
1895 -1888 0 c-1039 0 -1892 -3 -1895 -7z m2141 -310 c419 -224 597 -303 1027
-453 l250 -88 3 -188 c7 -405 -48 -671 -223 -1089 -36 -87 -97 -220 -135 -295
-232 -456 -621 -859 -1097 -1140 l-73 -42 -66 37 c-457 256 -885 700 -1115
1156 -67 134 -187 423 -233 562 -83 250 -113 434 -122 768 l-7 225 74 26 c41
15 160 57 264 93 349 122 575 224 965 434 124 66 231 121 238 121 7 0 119 -57
250 -127z"/>
</g>
</svg>
