<?xml version="1.0" standalone="no"?>
<!DOCTYPE svg PUBLIC "-//W3C//DTD SVG 20010904//EN"
 "http://www.w3.org/TR/2001/REC-SVG-20010904/DTD/svg10.dtd">
<svg version="1.0" xmlns="http://www.w3.org/2000/svg"
 width="405.000000pt" height="405.000000pt" viewBox="0 0 405.000000 405.000000"
 preserveAspectRatio="xMidYMid meet">

<g transform="translate(0.000000,405.000000) scale(0.100000,-0.100000)"
fill="#000000" stroke="none">
<path d="M137 3913 c-9 -8 -9 -3605 -1 -3706 l7 -77 1888 0 1889 0 0 1895 0
1895 -1888 0 c-1039 0 -1892 -3 -1895 -7z m1203 -433 c228 -55 436 -211 561
-421 43 -71 109 -246 109 -286 0 -40 28 -26 40 20 80 308 274 539 545 648 124
49 201 61 355 56 119 -3 146 -8 232 -37 295 -99 515 -338 594 -646 61 -241 19
-488 -137 -804 -211 -425 -574 -813 -1085 -1157 -138 -93 -386 -243 -483 -292
l-41 -21 -51 25 c-88 45 -340 195 -449 268 -584 391 -991 847 -1180 1325 -127
322 -127 577 0 839 120 245 332 420 587 482 110 27 290 28 403 1z"/>
</g>
</svg>
