<?xml version="1.0" standalone="no"?>
<!DOCTYPE svg PUBLIC "-//W3C//DTD SVG 20010904//EN"
 "http://www.w3.org/TR/2001/REC-SVG-20010904/DTD/svg10.dtd">
<svg version="1.0" xmlns="http://www.w3.org/2000/svg"
 width="512.000000pt" height="512.000000pt" viewBox="0 0 512.000000 512.000000"
 preserveAspectRatio="xMidYMid meet">

<g transform="translate(0.000000,512.000000) scale(0.100000,-0.100000)"
fill="#000000" stroke="none">
<path d="M1631 4172 c-464 -268 -843 -492 -842 -497 1 -9 1678 -984 1694 -985
4 0 7 443 7 985 0 542 -3 985 -7 985 -5 0 -388 -220 -852 -488z"/>
<path d="M2630 3675 c0 -542 3 -985 8 -985 16 1 1694 976 1694 985 0 9 -1678
984 -1694 985 -5 0 -8 -443 -8 -985z"/>
<path d="M700 2560 l0 -991 58 33 c344 196 1652 954 1652 958 0 4 -1574 917
-1687 978 l-23 13 0 -991z"/>
<path d="M3563 3056 c-469 -270 -853 -493 -853 -496 0 -3 384 -226 853 -497
l852 -491 3 494 c1 272 1 716 0 988 l-3 494 -852 -492z"/>
<path d="M1633 1942 c-464 -268 -844 -491 -845 -496 -3 -8 1677 -985 1695
-986 4 0 7 443 7 985 0 542 -3 985 -7 985 -5 -1 -387 -220 -850 -488z"/>
<path d="M2630 1445 c0 -542 3 -985 8 -985 16 1 1695 976 1695 985 -1 9 -1679
984 -1695 985 -5 0 -8 -443 -8 -985z"/>
</g>
</svg>
