<?xml version="1.0" standalone="no"?>
<!DOCTYPE svg PUBLIC "-//W3C//DTD SVG 20010904//EN"
 "http://www.w3.org/TR/2001/REC-SVG-20010904/DTD/svg10.dtd">
<svg version="1.0" xmlns="http://www.w3.org/2000/svg"
 width="405.000000pt" height="405.000000pt" viewBox="0 0 405.000000 405.000000"
 preserveAspectRatio="xMidYMid meet">

<g transform="translate(0.000000,405.000000) scale(0.100000,-0.100000)"
fill="#000000" stroke="none">
<path d="M137 3913 c-4 -3 -7 -856 -7 -1895 l0 -1888 1895 0 1895 0 0 1895 0
1895 -1888 0 c-1039 0 -1892 -3 -1895 -7z m2651 -352 c218 -156 343 -231 575
-347 94 -48 173 -87 174 -88 6 -5 -30 -270 -47 -353 -46 -221 -178 -523 -325
-745 -125 -187 -384 -420 -715 -641 l-134 -90 -103 109 c-123 129 -333 386
-408 499 -111 166 -170 307 -235 562 -69 267 -85 482 -55 747 7 70 16 130 19
133 2 2 98 28 213 57 288 74 407 115 703 244 74 33 140 56 145 52 6 -4 93 -67
193 -139z m-1478 -697 c0 -135 73 -486 141 -682 70 -200 175 -374 372 -620 96
-120 451 -512 463 -512 16 0 447 299 564 391 141 110 341 299 412 389 l35 45
-8 -65 c-25 -182 -121 -453 -217 -611 -32 -52 -95 -144 -140 -204 -124 -166
-135 -225 -71 -412 41 -122 38 -163 -14 -220 l-20 -23 -643 0 -642 0 -23 36
c-28 46 -74 74 -121 74 -21 0 -80 -7 -130 -16 -64 -11 -125 -15 -193 -11 -157
8 -252 53 -295 141 -19 39 -21 59 -18 154 3 104 2 109 -23 139 -21 25 -30 55
-48 164 -31 185 -31 182 -81 221 -88 66 -113 160 -67 246 12 23 61 98 108 165
142 200 143 204 105 346 -15 55 -16 75 -6 142 44 305 204 559 458 730 41 27
80 49 88 49 10 0 14 -14 14 -56z"/>
</g>
</svg>
