<?xml version="1.0" standalone="no"?>
<!DOCTYPE svg PUBLIC "-//W3C//DTD SVG 20010904//EN"
 "http://www.w3.org/TR/2001/REC-SVG-20010904/DTD/svg10.dtd">
<svg version="1.0" xmlns="http://www.w3.org/2000/svg"
 width="405.000000pt" height="405.000000pt" viewBox="0 0 405.000000 405.000000"
 preserveAspectRatio="xMidYMid meet">

<g transform="translate(0.000000,405.000000) scale(0.100000,-0.100000)"
fill="#000000" stroke="none">
<path d="M137 3913 c-4 -3 -7 -856 -7 -1895 l0 -1888 1895 0 1895 0 0 1895 0
1895 -1888 0 c-1039 0 -1892 -3 -1895 -7z m1753 -193 c238 -80 410 -262 470
-496 11 -43 20 -101 20 -131 0 -71 17 -68 55 10 37 77 175 220 257 266 138 78
331 111 480 82 344 -67 587 -379 565 -726 -6 -101 -27 -169 -86 -282 -79 -151
-240 -338 -411 -476 -251 -203 -649 -398 -1054 -516 l-139 -41 -56 46 c-624
510 -992 1109 -993 1614 0 96 4 128 26 195 70 219 236 385 456 454 93 29 103
30 230 26 85 -2 132 -9 180 -25z m-1010 -1055 c0 -26 80 -221 131 -322 68
-133 196 -324 309 -463 154 -189 439 -462 654 -625 l38 -29 92 24 c330 85 702
242 944 400 51 33 95 60 97 60 17 0 -96 -323 -148 -427 -34 -65 -135 -218
-211 -318 -37 -49 -68 -101 -76 -129 -18 -66 -8 -155 30 -265 37 -107 36 -144
-5 -197 l-26 -34 -640 0 -641 0 -52 55 c-49 52 -54 55 -101 55 -26 0 -87 -7
-134 -16 -105 -20 -262 -14 -339 12 -74 24 -136 82 -157 144 -13 39 -15 69 -9
140 6 87 6 91 -21 126 -23 30 -31 61 -54 195 -26 154 -29 161 -57 178 -43 27
-81 71 -99 115 -24 57 -13 113 36 183 189 274 203 297 207 349 3 30 -2 69 -12
97 -21 62 -20 142 3 247 34 151 84 265 170 388 50 70 71 87 71 57z"/>
</g>
</svg>
